<svg width="122" height="26" viewBox="0 0 122 26" fill="none" xmlns="http://www.w3.org/2000/svg">
<rect x="0.5" y="0.5" width="121" height="25" rx="4.5" stroke="#E06733"/>
<path d="M50.6382 12.26L50.3282 12.25L50.0382 11.05C49.6515 10.9833 49.3615 10.95 49.1682 10.95C48.7882 10.95 48.3615 11.0267 47.8882 11.18C47.7482 11.44 47.6382 11.7733 47.5582 12.18C47.4782 12.5867 47.4382 12.97 47.4382 13.33C47.4382 15.17 47.9682 16.09 49.0282 16.09C49.4815 16.09 49.8415 16.0233 50.1082 15.89L50.3182 14.67C50.7382 14.67 51.0582 14.6933 51.2782 14.74C51.3848 15.4667 51.4382 16.0567 51.4382 16.51C51.2782 16.63 50.9548 16.7633 50.4682 16.91C49.9882 17.0567 49.5148 17.13 49.0482 17.13C47.0615 17.13 46.0682 15.9033 46.0682 13.45C46.0682 12.2833 46.3082 11.3967 46.7882 10.79C47.2748 10.1833 48.0482 9.88 49.1082 9.88C49.6348 9.88 50.1015 9.95667 50.5082 10.11C50.8682 10.2433 51.1748 10.39 51.4282 10.55C51.4282 11.0033 51.3782 11.55 51.2782 12.19C51.0915 12.2367 50.8782 12.26 50.6382 12.26ZM53.9664 17.12C53.3997 17.12 52.9597 17.0033 52.6464 16.77C52.3397 16.5367 52.1864 16.1433 52.1864 15.59C52.1864 15.0633 52.3697 14.6333 52.7364 14.3C52.9497 14.1067 53.2464 13.9933 53.6264 13.96C54.0064 13.9267 54.5297 13.91 55.1964 13.91V13.75C55.1964 13.3433 55.1297 13.0467 54.9964 12.86C54.8697 12.6667 54.643 12.57 54.3164 12.57C54.1497 12.57 53.9997 12.6033 53.8664 12.67L53.6264 13.54L52.8864 13.52C52.7197 13.2667 52.6297 12.8633 52.6164 12.31C52.7497 12.2433 53.063 12.1433 53.5564 12.01C54.0497 11.87 54.3664 11.8 54.5064 11.8C55.2264 11.8 55.7497 11.95 56.0764 12.25C56.403 12.5433 56.5664 13.0133 56.5664 13.66C56.5664 14.3 56.5364 15.1467 56.4764 16.2C56.8564 16.2333 57.1497 16.29 57.3564 16.37C57.363 16.45 57.3664 16.5467 57.3664 16.66L57.3564 16.88C56.8764 17.04 56.393 17.12 55.9064 17.12C55.7797 17.12 55.6864 17.1167 55.6264 17.11C55.5264 16.91 55.4664 16.67 55.4464 16.39H55.3964C55.2697 16.51 55.0464 16.6633 54.7264 16.85C54.413 17.03 54.1597 17.12 53.9664 17.12ZM53.4664 15.65C53.4664 15.87 53.533 16.0333 53.6664 16.14C53.8064 16.24 53.963 16.29 54.1364 16.29C54.3097 16.29 54.5164 16.2133 54.7564 16.06C54.9964 15.9 55.1897 15.7567 55.3364 15.63L55.2864 14.71C54.7597 14.7367 54.363 14.7867 54.0964 14.86C53.6764 14.9467 53.4664 15.21 53.4664 15.65ZM59.447 9.57C59.5737 9.57 59.6537 9.57333 59.687 9.58C59.687 9.92667 59.6437 10.23 59.557 10.49C59.5503 10.9033 59.5403 11.4867 59.527 12.24C59.5003 13.8933 59.4803 15.16 59.467 16.04L60.247 16.13C60.247 16.4033 60.1703 16.6933 60.017 17H57.527L57.437 16.45C57.8503 16.2967 58.1503 16.1967 58.337 16.15L58.147 10.6C57.8337 10.5667 57.5703 10.5167 57.357 10.45C57.357 10.2033 57.3803 9.96333 57.427 9.73C57.8203 9.62333 58.4937 9.57 59.447 9.57ZM62.3962 9.57C62.5229 9.57 62.6029 9.57333 62.6362 9.58C62.6362 9.92667 62.5929 10.23 62.5062 10.49C62.4995 10.9033 62.4895 11.4867 62.4762 12.24C62.4495 13.8933 62.4295 15.16 62.4162 16.04L63.1962 16.13C63.1962 16.4033 63.1195 16.6933 62.9662 17H60.4762L60.3862 16.45C60.7995 16.2967 61.0995 16.1967 61.2862 16.15L61.0962 10.6C60.7829 10.5667 60.5195 10.5167 60.3062 10.45C60.3062 10.2033 60.3295 9.96333 60.3762 9.73C60.7695 9.62333 61.4429 9.57 62.3962 9.57ZM70.7531 11.88C70.8798 11.88 70.9598 11.8833 70.9931 11.89C70.9931 12.23 70.9364 12.5233 70.8231 12.77C70.7831 14.2367 70.7498 15.32 70.7231 16.02C71.0231 16.0467 71.2864 16.0967 71.5131 16.17L71.4931 16.87C71.0864 16.9967 70.7364 17.06 70.4431 17.06C70.1498 17.06 69.9498 17.0533 69.8431 17.04C69.7631 16.88 69.6964 16.72 69.6431 16.56C69.0898 16.9333 68.6898 17.12 68.4431 17.12C67.2498 17.12 66.6531 16.5167 66.6531 15.31C66.6531 14.9833 66.6798 14.18 66.7331 12.9C66.3798 12.9 66.0564 12.8533 65.7631 12.76C65.7631 12.5933 65.7864 12.3533 65.8331 12.04C66.2264 11.9333 66.8998 11.88 67.8531 11.88C67.9798 11.88 68.0598 11.8833 68.0931 11.89C68.0931 12.2167 68.0364 12.52 67.9231 12.8V14.82C67.9231 15.2467 67.9664 15.56 68.0531 15.76C68.1464 15.9533 68.3398 16.05 68.6331 16.05C68.9331 16.05 69.2398 15.9467 69.5531 15.74L69.4931 12.9C69.1998 12.8867 68.9231 12.84 68.6631 12.76C68.6631 12.5933 68.6864 12.3533 68.7331 12.04C69.1264 11.9333 69.7998 11.88 70.7531 11.88ZM75.6004 12.23L75.6104 12.54C75.6104 13.06 75.5704 13.4 75.4904 13.56C75.2704 13.64 74.9637 13.68 74.5704 13.68L74.2504 12.67C74.1637 12.6367 74.0437 12.62 73.8904 12.62C73.737 12.62 73.6104 12.6667 73.5104 12.76C73.417 12.8533 73.3704 12.9633 73.3704 13.09C73.3704 13.2167 73.4204 13.3333 73.5204 13.44C73.6204 13.54 73.7237 13.62 73.8304 13.68C73.937 13.74 74.0904 13.82 74.2904 13.92C74.497 14.0133 74.6504 14.0867 74.7504 14.14C74.857 14.1933 74.9904 14.2733 75.1504 14.38C75.317 14.4867 75.4437 14.5867 75.5304 14.68C75.7437 14.9333 75.8504 15.21 75.8504 15.51C75.8504 16.0233 75.6537 16.42 75.2604 16.7C74.8737 16.98 74.397 17.12 73.8304 17.12C73.5304 17.12 73.2004 17.0667 72.8404 16.96C72.487 16.8533 72.187 16.71 71.9404 16.53C71.9404 16.05 71.987 15.6033 72.0804 15.19C72.347 15.1567 72.5637 15.14 72.7304 15.14C72.897 15.14 73.0104 15.1433 73.0704 15.15L73.1904 16.12C73.357 16.18 73.557 16.21 73.7904 16.21C74.0237 16.21 74.207 16.1633 74.3404 16.07C74.4804 15.9767 74.5504 15.8467 74.5504 15.68C74.5504 15.5067 74.4737 15.3633 74.3204 15.25C74.167 15.1367 73.957 15.02 73.6904 14.9C73.4237 14.7733 73.217 14.67 73.0704 14.59C72.9237 14.5033 72.767 14.3933 72.6004 14.26C72.2604 14 72.0904 13.68 72.0904 13.3C72.0904 12.8267 72.2537 12.46 72.5804 12.2C72.9137 11.9333 73.3604 11.8 73.9204 11.8C74.4804 11.8 75.0404 11.9433 75.6004 12.23Z" fill="#717171"/>
</svg>
