<svg width="86" height="25" viewBox="0 0 86 25" fill="none" xmlns="http://www.w3.org/2000/svg">
<rect width="86" height="25" rx="10" fill="white"/>
<path d="M30.2415 12.9091C30.2415 14.0194 30.031 14.964 29.6101 15.7429C29.1925 16.5218 28.6224 17.1167 27.8999 17.5277C27.1806 17.9354 26.3719 18.1392 25.4737 18.1392C24.5689 18.1392 23.7569 17.9337 23.0376 17.5227C22.3184 17.1117 21.75 16.5168 21.3324 15.7379C20.9148 14.959 20.706 14.0161 20.706 12.9091C20.706 11.7988 20.9148 10.8542 21.3324 10.0753C21.75 9.2964 22.3184 8.70312 23.0376 8.29545C23.7569 7.88447 24.5689 7.67898 25.4737 7.67898C26.3719 7.67898 27.1806 7.88447 27.8999 8.29545C28.6224 8.70312 29.1925 9.2964 29.6101 10.0753C30.031 10.8542 30.2415 11.7988 30.2415 12.9091ZM28.0589 12.9091C28.0589 12.1899 27.9512 11.5833 27.7358 11.0895C27.5237 10.5956 27.2237 10.2211 26.8359 9.96591C26.4482 9.7107 25.9941 9.5831 25.4737 9.5831C24.9534 9.5831 24.4993 9.7107 24.1115 9.96591C23.7237 10.2211 23.4221 10.5956 23.2067 11.0895C22.9946 11.5833 22.8885 12.1899 22.8885 12.9091C22.8885 13.6283 22.9946 14.2348 23.2067 14.7287C23.4221 15.2225 23.7237 15.5971 24.1115 15.8523C24.4993 16.1075 24.9534 16.2351 25.4737 16.2351C25.9941 16.2351 26.4482 16.1075 26.8359 15.8523C27.2237 15.5971 27.5237 15.2225 27.7358 14.7287C27.9512 14.2348 28.0589 13.6283 28.0589 12.9091ZM31.7963 18V10.3636H33.8496V11.696H33.9292C34.0684 11.2221 34.302 10.8641 34.6301 10.6222C34.9583 10.3769 35.3361 10.2543 35.7637 10.2543C35.8697 10.2543 35.9841 10.2609 36.1067 10.2741C36.2293 10.2874 36.3371 10.3056 36.4299 10.3288V12.2081C36.3304 12.1783 36.1929 12.1518 36.0172 12.1286C35.8416 12.1054 35.6808 12.0938 35.535 12.0938C35.2234 12.0938 34.945 12.1617 34.6998 12.2976C34.4578 12.4302 34.2656 12.6158 34.123 12.8544C33.9838 13.093 33.9142 13.3681 33.9142 13.6797V18H31.7963ZM39.9833 18.1243C39.4033 18.1243 38.878 17.9751 38.4073 17.6768C37.94 17.3752 37.5688 16.9328 37.2937 16.3494C37.0219 15.7628 36.886 15.0436 36.886 14.1918C36.886 13.3168 37.0269 12.5893 37.3086 12.0092C37.5903 11.4259 37.9648 10.9901 38.4322 10.7017C38.9028 10.41 39.4182 10.2642 39.9783 10.2642C40.4059 10.2642 40.7622 10.3371 41.0472 10.483C41.3356 10.6255 41.5676 10.8045 41.7433 11.0199C41.9222 11.232 42.0581 11.4408 42.1509 11.6463H42.2156V7.81818H44.3285V18H42.2404V16.777H42.1509C42.0515 16.9891 41.9106 17.1996 41.7283 17.4084C41.5494 17.6139 41.3157 17.7846 41.0273 17.9205C40.7423 18.0563 40.3943 18.1243 39.9833 18.1243ZM40.6545 16.4389C40.9959 16.4389 41.2842 16.3461 41.5195 16.1605C41.7582 15.9716 41.9405 15.7081 42.0664 15.37C42.1957 15.032 42.2603 14.6359 42.2603 14.1818C42.2603 13.7277 42.1973 13.3333 42.0714 12.9986C41.9454 12.6638 41.7631 12.4053 41.5245 12.223C41.2859 12.0407 40.9959 11.9496 40.6545 11.9496C40.3065 11.9496 40.0131 12.044 39.7745 12.233C39.5359 12.4219 39.3552 12.6837 39.2326 13.0185C39.11 13.3532 39.0487 13.741 39.0487 14.1818C39.0487 14.6259 39.11 15.0187 39.2326 15.3601C39.3585 15.6982 39.5392 15.9633 39.7745 16.1555C40.0131 16.3445 40.3065 16.4389 40.6545 16.4389ZM49.5499 18.1491C48.7644 18.1491 48.0882 17.9901 47.5215 17.6719C46.958 17.3504 46.5239 16.8963 46.2189 16.3097C45.914 15.7197 45.7615 15.022 45.7615 14.2166C45.7615 13.4311 45.914 12.7417 46.2189 12.1484C46.5239 11.5552 46.9531 11.0928 47.5066 10.7614C48.0634 10.4299 48.7163 10.2642 49.4654 10.2642C49.9692 10.2642 50.4382 10.3454 50.8723 10.5078C51.3098 10.6669 51.691 10.9072 52.0158 11.2287C52.3439 11.5502 52.5991 11.9545 52.7814 12.4418C52.9637 12.9257 53.0549 13.4924 53.0549 14.142V14.7237H46.6067V13.4112H51.0613C51.0613 13.1063 50.995 12.8362 50.8624 12.6009C50.7298 12.3655 50.5459 12.1816 50.3105 12.049C50.0785 11.9131 49.8084 11.8452 49.5002 11.8452C49.1787 11.8452 48.8936 11.9197 48.6451 12.0689C48.3998 12.2147 48.2076 12.4119 48.0684 12.6605C47.9292 12.9058 47.8579 13.1792 47.8546 13.4808V14.7287C47.8546 15.1065 47.9242 15.433 48.0634 15.7081C48.2059 15.9832 48.4064 16.1953 48.665 16.3445C48.9235 16.4936 49.2301 16.5682 49.5847 16.5682C49.82 16.5682 50.0355 16.535 50.231 16.4688C50.4266 16.4025 50.5939 16.303 50.7331 16.1705C50.8723 16.0379 50.9784 15.8755 51.0513 15.6832L53.0101 15.8125C52.9107 16.2831 52.7069 16.6941 52.3986 17.0455C52.0937 17.3935 51.6993 17.6652 51.2154 17.8608C50.7348 18.053 50.1796 18.1491 49.5499 18.1491ZM54.437 18V10.3636H56.4902V11.696H56.5698C56.709 11.2221 56.9426 10.8641 57.2708 10.6222C57.5989 10.3769 57.9767 10.2543 58.4043 10.2543C58.5104 10.2543 58.6247 10.2609 58.7473 10.2741C58.87 10.2874 58.9777 10.3056 59.0705 10.3288V12.2081C58.9711 12.1783 58.8335 12.1518 58.6578 12.1286C58.4822 12.1054 58.3214 12.0938 58.1756 12.0938C57.8641 12.0938 57.5856 12.1617 57.3404 12.2976C57.0984 12.4302 56.9062 12.6158 56.7637 12.8544C56.6245 13.093 56.5549 13.3681 56.5549 13.6797V18H54.437Z" fill="#717171"/>
</svg>
